# xmcd CD Database Entry
#
# Track frame offsets:
# 150
# 3162
# 30185
# 61535
# 93147
# 118282
# 141372
# 175027
# 211732
# 251337
# 282665
#
# Disc length: 4222 seconds
#
# Revision: 1
# Processed by: cddbd v1.4PL0 Copyright (c) Steve Scherf et al.
# Submitted via: tcd 2.0b
#
DISCID=87107c0b
DTITLE=Dave Matthews band - Before these crowded streets
DYEAR=1900
DGENRE=
TTITLE0=Pantala Naga Pampa
TTITLE1=Rapunzel
TTITLE2=The last stop
TTITLE3=Don't drink the water
TTITLE4=Stay (wasting time)
TTITLE5=Halloween
TTITLE6=The stone
TTITLE7=Crush
TTITLE8=The dreaming tree
TTITLE9=Pig
TTITLE10=Spoon
EXTD=
EXTT0=
EXTT1=
EXTT2=
EXTT3=
EXTT4=
EXTT5=
EXTT6=
EXTT7=
EXTT8=
EXTT9=
EXTT10=
PLAYORDER=
